<svg width="225" height="93" viewBox="0 0 225 93" fill="none" xmlns="http://www.w3.org/2000/svg">
<path d="M12.293 1.34375L23.25 32.2812L34.1484 1.34375H45.6914V44H36.873V32.3398L37.752 12.2129L26.2383 44H20.2031L8.71875 12.2422L9.59766 32.3398V44H0.808594V1.34375H12.293ZM62.7129 44H53.9238V1.34375H62.7129V44ZM84.2461 26.8906L79.6758 31.8125V44H70.8867V1.34375H79.6758V20.6797L83.543 15.377L94.4121 1.34375H105.223L90.0762 20.2988L105.662 44H95.2031L84.2461 26.8906ZM122.332 26.8906L117.762 31.8125V44H108.973V1.34375H117.762V20.6797L121.629 15.377L132.498 1.34375H143.309L128.162 20.2988L143.748 44H133.289L122.332 26.8906ZM181.16 23.6387C181.16 27.8379 180.418 31.5195 178.934 34.6836C177.449 37.8477 175.32 40.2891 172.547 42.0078C169.793 43.7266 166.629 44.5859 163.055 44.5859C159.52 44.5859 156.365 43.7363 153.592 42.0371C150.818 40.3379 148.67 37.916 147.146 34.7715C145.623 31.6074 144.852 27.9746 144.832 23.873V21.7637C144.832 17.5645 145.584 13.873 147.088 10.6895C148.611 7.48633 150.75 5.03516 153.504 3.33594C156.277 1.61719 159.441 0.757812 162.996 0.757812C166.551 0.757812 169.705 1.61719 172.459 3.33594C175.232 5.03516 177.371 7.48633 178.875 10.6895C180.398 13.873 181.16 17.5547 181.16 21.7344V23.6387ZM172.254 21.7051C172.254 17.2324 171.453 13.834 169.852 11.5098C168.25 9.18555 165.965 8.02344 162.996 8.02344C160.047 8.02344 157.771 9.17578 156.17 11.4805C154.568 13.7656 153.758 17.125 153.738 21.5586V23.6387C153.738 27.9941 154.539 31.373 156.141 33.7754C157.742 36.1777 160.047 37.3789 163.055 37.3789C166.004 37.3789 168.27 36.2266 169.852 33.9219C171.434 31.5977 172.234 28.2188 172.254 23.7852V21.7051ZM9.59766 84.9395H28.2598V92H0.808594V49.3438H9.59766V84.9395ZM57.9961 83.2109H42.5859L39.6562 92H30.3105L46.1895 49.3438H54.334L70.3008 92H60.9551L57.9961 83.2109ZM44.959 76.0918H55.623L50.2617 60.125L44.959 76.0918ZM98.3672 83.2109H82.957L80.0273 92H70.6816L86.5605 49.3438H94.7051L110.672 92H101.326L98.3672 83.2109ZM85.3301 76.0918H95.9941L90.6328 60.125L85.3301 76.0918ZM128.016 74.8906L123.445 79.8125V92H114.656V49.3438H123.445V68.6797L127.312 63.377L138.182 49.3438H148.992L133.846 68.2988L149.432 92H138.973L128.016 74.8906ZM174.861 80.8086C174.861 79.1484 174.275 77.8789 173.104 77C171.932 76.1016 169.822 75.1641 166.775 74.1875C163.729 73.1914 161.316 72.2148 159.539 71.2578C154.695 68.6406 152.273 65.1152 152.273 60.6816C152.273 58.377 152.918 56.3262 154.207 54.5293C155.516 52.7129 157.381 51.2969 159.803 50.2812C162.244 49.2656 164.979 48.7578 168.006 48.7578C171.053 48.7578 173.768 49.3145 176.15 50.4277C178.533 51.5215 180.379 53.0742 181.688 55.0859C183.016 57.0977 183.68 59.3828 183.68 61.9414H174.891C174.891 59.9883 174.275 58.4746 173.045 57.4004C171.814 56.3066 170.086 55.7598 167.859 55.7598C165.711 55.7598 164.041 56.2188 162.85 57.1367C161.658 58.0352 161.062 59.2266 161.062 60.7109C161.062 62.0977 161.756 63.2598 163.143 64.1973C164.549 65.1348 166.609 66.0137 169.324 66.834C174.324 68.3379 177.967 70.2031 180.252 72.4297C182.537 74.6562 183.68 77.4297 183.68 80.75C183.68 84.4414 182.283 87.3418 179.49 89.4512C176.697 91.541 172.938 92.5859 168.211 92.5859C164.93 92.5859 161.941 91.9902 159.246 90.7988C156.551 89.5879 154.49 87.9375 153.064 85.8477C151.658 83.7578 150.955 81.3359 150.955 78.582H159.773C159.773 83.2891 162.586 85.6426 168.211 85.6426C170.301 85.6426 171.932 85.2227 173.104 84.3828C174.275 83.5234 174.861 82.332 174.861 80.8086ZM224.695 71.6387C224.695 75.8379 223.953 79.5195 222.469 82.6836C220.984 85.8477 218.855 88.2891 216.082 90.0078C213.328 91.7266 210.164 92.5859 206.59 92.5859C203.055 92.5859 199.9 91.7363 197.127 90.0371C194.354 88.3379 192.205 85.916 190.682 82.7715C189.158 79.6074 188.387 75.9746 188.367 71.873V69.7637C188.367 65.5645 189.119 61.873 190.623 58.6895C192.146 55.4863 194.285 53.0352 197.039 51.3359C199.812 49.6172 202.977 48.7578 206.531 48.7578C210.086 48.7578 213.24 49.6172 215.994 51.3359C218.768 53.0352 220.906 55.4863 222.41 58.6895C223.934 61.873 224.695 65.5547 224.695 69.7344V71.6387ZM215.789 69.7051C215.789 65.2324 214.988 61.834 213.387 59.5098C211.785 57.1855 209.5 56.0234 206.531 56.0234C203.582 56.0234 201.307 57.1758 199.705 59.4805C198.104 61.7656 197.293 65.125 197.273 69.5586V71.6387C197.273 75.9941 198.074 79.373 199.676 81.7754C201.277 84.1777 203.582 85.3789 206.59 85.3789C209.539 85.3789 211.805 84.2266 213.387 81.9219C214.969 79.5977 215.77 76.2188 215.789 71.7852V69.7051Z" fill="#6CCFF6"/>
</svg>
